Run_20002
nRows=4
nColumns=164

# SIMM Motion File Header:
name Run_20002
datacolumns 164
datarows 4
otherdata 1
range 2.65000000 2.68000000
endheader
time	pelvis_tilt	pelvis_list	pelvis_rotation	pelvis_tx	pelvis_ty	pelvis_tz	hip_flexion_r	hip_adduction_r	hip_rotation_r	knee_angle_r	ankle_angle_r	hip_flexion_l	hip_adduction_l	hip_rotation_l	knee_angle_l	ankle_angle_l	lumbar_extension	lumbar_bending	lumbar_rotation	arm_flex_r	arm_add_r	arm_rot_r	elbow_flex_r	pro_sup_r	arm_flex_l	arm_add_l	arm_rot_l	elbow_flex_l	pro_sup_l	subtalar_angle_r	mtp_angle_r	subtalar_angle_l	mtp_angle_l	wrist_flex_r	wrist_dev_r	wrist_flex_l	wrist_dev_l	LPSI_tx	LPSI_ty	LPSI_tz	RPSI_tx	RPSI_ty	RPSI_tz	RTH1_tx	RTH1_ty	RTH1_tz	RTH2_tx	RTH2_ty	RTH2_tz	RTH3_tx	RTH3_ty	RTH3_tz	LTH1_tx	LTH1_ty	LTH1_tz	LTH2_tx	LTH2_ty	LTH2_tz	LTH3_tx	LTH3_ty	LTH3_tz	RTB1_tx	RTB1_ty	RTB1_tz	RTB2_tx	RTB2_ty	RTB2_tz	RTB3_tx	RTB3_ty	RTB3_tz	LTB1_tx	LTB1_ty	LTB1_tz	LTB2_tx	LTB2_ty	LTB2_tz	LTB3_tx	LTB3_ty	LTB3_tz	RCAL_tx	RCAL_ty	RCAL_tz	RTOE_tx	RTOE_ty	RTOE_tz	RMT5_tx	RMT5_ty	RMT5_tz	LCAL_tx	LCAL_ty	LCAL_tz	LTOE_tx	LTOE_ty	LTOE_tz	LMT5_tx	LMT5_ty	LMT5_tz	LACR_tx	LACR_ty	LACR_tz	RACR_tx	RACR_ty	RACR_tz	CLAV_tx	CLAV_ty	CLAV_tz	C7_tx	C7_ty	C7_tz	RUA1_tx	RUA1_ty	RUA1_tz	RUA2_tx	RUA2_ty	RUA2_tz	RUA3_tx	RUA3_ty	RUA3_tz	RLEL_tx	RLEL_ty	RLEL_tz	RMEL_tx	RMEL_ty	RMEL_tz	LUA1_tx	LUA1_ty	LUA1_tz	LUA2_tx	LUA2_ty	LUA2_tz	LUA3_tx	LUA3_ty	LUA3_tz	LLEL_tx	LLEL_ty	LLEL_tz	LMEL_tx	LMEL_ty	LMEL_tz	RFAsuperior_tx	RFAsuperior_ty	RFAsuperior_tz	RFAradius_tx	RFAradius_ty	RFAradius_tz	RFAulna_tx	RFAulna_ty	RFAulna_tz	LFAsuperior_tx	LFAsuperior_ty	LFAsuperior_tz	LFAradius_tx	LFAradius_ty	LFAradius_tz	LFAulna_tx	LFAulna_ty	LFAulna_tz	RASI_tx	RASI_ty	RASI_tz	LASI_tx	LASI_ty	LASI_tz
      2.65000000	     -1.18077743	      4.40903094	      3.21837405	      0.79697270	      1.02353367	     -0.48815240	      0.77762712	     -5.32642406	     -4.83242582	    -58.85523242	    -13.18377445	     17.94073264	      6.07031648	     -0.54259211	    -26.01507581	     -1.27161862	     -5.21155099	     -4.28342914	     -1.34102897	    -15.76734328	    -14.63833423	      9.05377339	    108.02201678	     77.08524764	    -36.02702669	    -41.63004567	     16.06334673	    118.33666758	     65.23961669	      0.00000000	      0.00000000	      0.00000000	      0.00000000	      0.00000000	      0.00000000	      0.00000000	      0.00000000	      0.61533684	      1.08924597	     -0.52125118	      0.61985934	      1.08726317	     -0.43607898	      0.74292764	      0.87514586	     -0.30209864	      0.78921819	      0.73400930	     -0.32063735	      0.70439367	      0.63593179	     -0.32350643	      0.74841841	      0.91121232	     -0.67444761	      0.84021654	      0.81233762	     -0.65683673	      0.78951444	      0.66092714	     -0.65137462	      0.63361258	      0.40380116	     -0.36923955	      0.52638699	      0.38596139	     -0.31850208	      0.46236012	      0.30336964	     -0.37422934	      0.86259995	      0.43451097	     -0.59351775	      0.79666207	      0.36190572	     -0.65869374	      0.82404355	      0.23116773	     -0.58413848	      0.28976505	      0.33945689	     -0.39757677	      0.38701511	      0.12862146	     -0.38044705	      0.34093839	      0.14400485	     -0.29703283	      0.68079358	      0.09694427	     -0.56425900	      0.91377871	      0.07564745	     -0.57101282	      0.87779149	      0.04542771	     -0.65122332	      0.75043520	      1.55040732	     -0.65393180	      0.74733849	      1.53179425	     -0.31908143	      0.82760692	      1.50072773	     -0.46667967	      0.69002019	      1.57296552	     -0.50048128	      0.69461278	      1.42127207	     -0.23553427	      0.61592474	      1.35248414	     -0.25616688	      0.65700025	      1.30998403	     -0.20529474	      0.64702543	      1.21231969	     -0.18658627	      0.60443301	      1.19742744	     -0.25784506	      0.67695648	      1.48777879	     -0.75689506	      0.59325721	      1.43530975	     -0.75516893	      0.62294811	      1.40178361	     -0.82409773	      0.59480406	      1.32487502	     -0.87044411	      0.53172986	      1.30993250	     -0.82537125	      0.71634250	      1.17785500	     -0.21473762	      0.88376219	      1.21102961	     -0.33222296	      0.86821749	      1.14131568	     -0.32653012	      0.66926261	      1.24140895	     -0.81456891	      0.76604725	      1.21690387	     -0.69074274	      0.72780490	      1.16262555	     -0.70506977	      0.80618564	      1.01506973	     -0.36218414	      0.79669648	      1.02951730	     -0.61175663
      2.66000000	     -0.27536200	      4.51428164	      3.46441152	      0.79574128	      1.01650214	     -0.49041493	      1.65664471	     -5.80769239	     -5.41183998	    -62.50644969	    -11.77182468	     17.18136360	      6.50382809	     -0.19104342	    -28.87721439	      2.77564498	     -6.28122065	     -4.50200852	     -2.43592416	    -15.95295401	    -14.72614540	      9.40712917	    106.46019199	     76.63516272	    -33.90085162	    -41.53376088	     16.99711698	    118.27923385	     65.33988238	      0.00000000	      0.00000000	      0.00000000	      0.00000000	      0.00000000	      0.00000000	      0.00000000	      0.00000000	      0.61252809	      1.07956619	     -0.52300067	      0.61864463	      1.07655688	     -0.43852466	      0.74631929	      0.86751172	     -0.30324502	      0.79600047	      0.72815283	     -0.32077211	      0.71445704	      0.62747967	     -0.32368630	      0.74757856	      0.90280907	     -0.67606683	      0.83855521	      0.80407710	     -0.65693871	      0.78913308	      0.65347970	     -0.65254043	      0.64397362	      0.39896617	     -0.36926448	      0.53565604	      0.38477035	     -0.31947320	      0.46990454	      0.30388287	     -0.37539547	      0.85746536	      0.42659591	     -0.59124528	      0.78988325	      0.35582284	     -0.65704317	      0.80891401	      0.22500835	     -0.58014984	      0.29728788	      0.34340859	     -0.40040276	      0.39293704	      0.13182169	     -0.38082274	      0.34641607	      0.14817275	     -0.29832757	      0.65924122	      0.09271999	     -0.56208423	      0.89378751	      0.07440152	     -0.57028106	      0.85745007	      0.04590969	     -0.65118402	      0.75045550	      1.54040781	     -0.65733531	      0.74384419	      1.52385050	     -0.32046653	      0.82705280	      1.49210711	     -0.46718192	      0.68845578	      1.56414249	     -0.50286822	      0.69012687	      1.41278411	     -0.23800674	      0.61089598	      1.34452554	     -0.25917620	      0.65133210	      1.30181344	     -0.20775229	      0.64002770	      1.20517822	     -0.18891535	      0.59807166	      1.19075490	     -0.26034337	      0.67973072	      1.47369825	     -0.76107302	      0.59706366	      1.41997995	     -0.76059041	      0.62915525	      1.38603694	     -0.82830864	      0.60368813	      1.30888996	     -0.87440156	      0.54018880	      1.29223942	     -0.83048781	      0.70858637	      1.16819403	     -0.21578205	      0.87831186	      1.19475644	     -0.33178520	      0.85983789	      1.12597454	     -0.32529252	      0.67901662	      1.22782118	     -0.81575648	      0.77373912	      1.20789990	     -0.68938648	      0.73698288	      1.15240687	     -0.70384092	      0.80572127	      1.00776133	     -0.36440451	      0.79599810	      1.02171210	     -0.61436367
      2.67000000	      0.22049289	      4.70056484	      3.76814400	      0.79390475	      1.00916792	     -0.49254772	      3.12900373	     -6.43503581	     -5.94846345	    -66.11695972	    -10.28740776	     16.91020060	      6.96382430	     -0.23373483	    -31.60711466	      5.93454613	     -6.94296802	     -4.85284741	     -3.64459433	    -16.07290494	    -14.72163624	      9.74679175	    104.56880149	     76.34579293	    -31.59363481	    -41.40182467	     18.00659171	    117.96324688	     65.55893550	      0.00000000	      0.00000000	      0.00000000	      0.00000000	      0.00000000	      0.00000000	      0.00000000	      0.00000000	      0.60947941	      1.07166295	     -0.52422331	      0.61671890	      1.06687058	     -0.44037214	      0.74946530	      0.86042464	     -0.30432153	      0.80253910	      0.72306794	     -0.32057773	      0.72445641	      0.61961589	     -0.32382910	      0.74520917	      0.89531177	     -0.67782639	      0.83580711	      0.79557436	     -0.65885338	      0.78686748	      0.64631932	     -0.65298976	      0.65526667	      0.39457198	     -0.36940704	      0.54608345	      0.38341571	     -0.32045229	      0.47901066	      0.30398197	     -0.37666309	      0.85161610	      0.41966823	     -0.58888649	      0.78329323	      0.35027053	     -0.65558333	      0.79472775	      0.22002527	     -0.57697884	      0.30626321	      0.34625154	     -0.40337628	      0.40137591	      0.13417629	     -0.38071265	      0.35426765	      0.15197012	     -0.29902404	      0.63950523	      0.09109211	     -0.55930214	      0.87513423	      0.07314725	     -0.56999307	      0.83784835	      0.04573736	     -0.65072610	      0.75031518	      1.53050214	     -0.66071279	      0.74026020	      1.51611975	     -0.32186386	      0.82659132	      1.48332724	     -0.46731215	      0.68680617	      1.55542161	     -0.50545450	      0.68522336	      1.40438125	     -0.24077125	      0.60564250	      1.33659047	     -0.26233094	      0.64539725	      1.29378111	     -0.21041673	      0.63270356	      1.19815192	     -0.19129948	      0.59147085	      1.18416761	     -0.26295629	      0.68308475	      1.45908554	     -0.76541380	      0.60152740	      1.40363822	     -0.76588141	      0.63630435	      1.36986423	     -0.83236752	      0.61375499	      1.29257355	     -0.87802847	      0.54982880	      1.27417336	     -0.83528006	      0.70021578	      1.15808131	     -0.21682538	      0.87258414	      1.17807209	     -0.33091248	      0.85129562	      1.11019294	     -0.32357498	      0.68943122	      1.21385945	     -0.81630313	      0.78185972	      1.19853018	     -0.68760710	      0.74681030	      1.14190809	     -0.70230453	      0.80485764	      1.00020235	     -0.36648313	      0.79479532	      1.01357033	     -0.61673586
      2.68000000	      0.11786057	      4.90585225	      4.03657545	      0.79175374	      1.00169701	     -0.49405297	      5.39340025	     -7.04451959	     -6.22143599	    -69.58705356	     -8.74112532	     17.22576399	      7.34095349	     -0.57942595	    -34.15286326	      8.36804838	     -6.94120778	     -5.35264618	     -4.83040748	    -16.20425581	    -14.58858040	     10.10532568	    102.34869032	     76.08192310	    -29.20168504	    -41.22593005	     19.02227095	    117.34178639	     65.78928184	      0.00000000	      0.00000000	      0.00000000	      0.00000000	      0.00000000	      0.00000000	      0.00000000	      0.00000000	      0.60716142	      1.06621365	     -0.52494555	      0.61412303	      1.05924710	     -0.44135229	      0.75215770	      0.85422586	     -0.30534532	      0.80874401	      0.71894133	     -0.32014634	      0.73442259	      0.61292961	     -0.32383878	      0.74185708	      0.88931839	     -0.67929224	      0.83225087	      0.78795101	     -0.66129041	      0.78309283	      0.63996720	     -0.65298719	      0.66743169	      0.39081564	     -0.36982591	      0.55770846	      0.38183529	     -0.32149197	      0.48956780	      0.30378637	     -0.37810367	      0.84488599	      0.41331628	     -0.58701518	      0.77573355	      0.34543108	     -0.65451721	      0.78077977	      0.21592473	     -0.57470510	      0.31640257	      0.34788835	     -0.40613317	      0.41226129	      0.13598513	     -0.38067155	      0.36484737	      0.15514635	     -0.29936351	      0.62069074	      0.09133553	     -0.55619652	      0.85675788	      0.07167533	     -0.56982140	      0.81830395	      0.04549375	     -0.65029455	      0.75017510	      1.52107313	     -0.66408598	      0.73692139	      1.50897680	     -0.32351389	      0.82597525	      1.47503139	     -0.46752322	      0.68523833	      1.54755311	     -0.50844871	      0.68022704	      1.39701354	     -0.24368191	      0.60044088	      1.32968212	     -0.26578129	      0.63925531	      1.28676647	     -0.21326834	      0.62514549	      1.19172266	     -0.19385000	      0.58468416	      1.17813065	     -0.26568898	      0.68691761	      1.44483113	     -0.76949087	      0.60646265	      1.38685329	     -0.77082226	      0.64435384	      1.35397193	     -0.83601030	      0.62498576	      1.27636916	     -0.88099274	      0.56064685	      1.25626818	     -0.83938570	      0.69149618	      1.14848700	     -0.21789320	      0.86644893	      1.16169890	     -0.32958856	      0.84248549	      1.09460246	     -0.32161271	      0.70068783	      1.20005735	     -0.81614774	      0.79057431	      1.18903748	     -0.68547871	      0.75731404	      1.13153441	     -0.70042052	      0.80360503	      0.99269897	     -0.36790689	      0.79312037	      1.00536663	     -0.61837972
